<?xml version="1.0" encoding="utf-8"?>
<!-- Generator: Adobe Illustrator 23.0.1, SVG Export Plug-In . SVG Version: 6.00 Build 0)  -->
<svg version="1.1" id="Capa_1" xmlns="http://www.w3.org/2000/svg" xmlns:xlink="http://www.w3.org/1999/xlink" x="0px" y="0px"
	 viewBox="0 0 485.2 485.2" style="enable-background:new 0 0 485.2 485.2;" xml:space="preserve">
<g>
	<g>
		<path d="M13.3,471.9c17.7,17.8,46.5,17.8,64.3,0L189,360.6c-25.8-16.6-47.7-38.5-64.3-64.3L13.3,407.6
			C-4.4,425.3-4.4,454.1,13.3,471.9z"/>
		<path d="M303.3,363.9c100.5,0,182-81.5,182-182S403.7,0,303.3,0c-100.5,0-182,81.5-182,182S202.8,363.9,303.3,363.9z M166.8,182
			c0-75.3,61.2-136.5,136.5-136.5c75.3,0,136.5,61.2,136.5,136.5s-61.2,136.5-136.5,136.5C228,318.4,166.8,257.2,166.8,182z"/>
		<path d="M303.3,75.8v30.3c41.8,0,75.8,34,75.8,75.8h30.3C409.4,123.4,361.8,75.8,303.3,75.8z"/>
	</g>
</g>
</svg>
